PathFileType	4	(X/Y/Z)	S1_rest_med_right.trc
DataRate	CameraRate	NumFrames	NumMarkers	Units	OrigDataRate	OrigDataStartFrame	OrigNumFrames
250.00	250.00	12	18	mm	250.00	3081	24643
Frame#	Time	c7	r_should	l_should	clavicle	r_upa	r_elb_l	r_elb_m	r_low	r_wri_l	r_wri_m	r_met	l_upa	l_elb_l	l_elb_m	l_low	l_wri_l	l_wri_m	l_met
	X1	Y1	Z1	X2	Y2	Z2	X3	Y3	Z3	X4	Y4	Z4	X5	Y5	Z5	X6	Y6	Z6	X7	Y7	Z7	X8	Y8	Z8	X9	Y9	Z9	X10	Y10	Z10	X11	Y11	Z11	X12	Y12	Z12	X13	Y13	Z13	X14	Y14	Z14	X15	Y15	Z15	X16	Y16	Z16	X17	Y17	Z17	X18	Y18	Z18
3081	12.32000	362.78696	1414.20166	78.87964	407.65350	1357.16028	249.39188	431.98669	1366.46045	-112.30695	514.79254	1308.69360	70.23264	477.15228	1163.29761	297.07397	507.18372	1122.60828	302.42319	517.47906	1061.28931	207.92358	604.16547	1152.81885	249.53488	598.51215	1262.81201	258.28790	626.52130	1241.34473	191.13104	653.13623	1309.39941	280.89761	433.12750	1155.66064	-178.38316	443.40945	1076.36108	-193.78467	367.75714	1041.36963	-135.47720	445.79999	930.86438	-200.03699	529.64087	873.23529	-132.66124	489.92020	840.07452	-186.16379	580.05212	807.03394	-140.12733
3082	12.32400	362.76535	1414.19861	78.90534	407.63467	1357.14526	249.42505	431.95673	1366.46289	-112.28268	514.75690	1308.69934	70.29408	477.14990	1163.29578	297.10495	507.15668	1122.59668	302.46790	517.53937	1061.31482	208.02873	604.13000	1152.85803	249.59404	598.45038	1262.84558	258.36319	626.44794	1241.39966	191.18912	653.05548	1309.46631	280.94510	433.10794	1155.67175	-178.38902	443.39020	1076.38293	-193.80119	367.73022	1041.37622	-135.50719	445.79099	930.88220	-200.05211	529.63647	873.25739	-132.67506	489.91644	840.10107	-186.18941	580.05621	807.05933	-140.13605
3083	12.32800	362.74664	1414.19324	78.93182	407.61542	1357.12952	249.45107	431.92670	1366.46326	-112.26649	514.72876	1308.70496	70.34030	477.15109	1163.30054	297.13629	507.13086	1122.58350	302.51077	517.61499	1061.35510	208.15009	604.09283	1152.89331	249.64313	598.38312	1262.87585	258.43503	626.36865	1241.45557	191.24141	652.97784	1309.52344	281.00568	433.08963	1155.67468	-178.39485	443.47260	1076.31445	-193.63663	367.70624	1041.38843	-135.53381	445.77682	930.90857	-200.07634	529.62781	873.27637	-132.69354	489.91629	840.12079	-186.21350	580.05457	807.09393	-140.16035
3084	12.33200	362.72156	1414.18494	78.95434	407.59564	1357.12195	249.47481	431.89938	1366.46265	-112.25388	514.70068	1308.71008	70.38327	477.14658	1163.30200	297.17410	507.09998	1122.57385	302.55954	517.60620	1061.16162	208.21579	604.05029	1152.92761	249.69176	598.31024	1262.90417	258.49835	626.28925	1241.50891	191.30133	652.90204	1309.58508	281.06049	433.06912	1155.68750	-178.40471	443.57675	1076.21875	-193.41571	367.67709	1041.39038	-135.56064	445.76141	930.92334	-200.10602	529.61096	873.30176	-132.71461	489.91507	840.14893	-186.23959	580.04858	807.11493	-140.20047
3085	12.33600	362.70453	1414.17456	78.98024	407.57635	1357.11328	249.50410	431.87775	1366.45435	-112.23235	514.67023	1308.70752	70.42268	477.14172	1163.29529	297.21289	507.06113	1122.55334	302.60565	517.69641	1060.96704	208.40375	604.01007	1152.96497	249.73997	598.23132	1262.93445	258.56625	626.21155	1241.56299	191.35994	652.82141	1309.64282	281.11008	433.03998	1155.70239	-178.41479	443.37592	1076.37793	-193.75815	367.65295	1041.38794	-135.59198	445.74307	930.93298	-200.13420	529.59760	873.32196	-132.74290	489.90875	840.16827	-186.27304	580.04980	807.13501	-140.21527
3086	12.34000	362.68933	1414.16052	79.00099	407.54782	1357.10559	249.54182	431.85107	1366.45349	-112.20837	514.63916	1308.69568	70.46248	477.12607	1163.28589	297.25534	507.02094	1122.53308	302.65607	517.54242	1061.19177	208.16647	603.97052	1153.00330	249.80614	598.15253	1262.96692	258.63596	626.14062	1241.61487	191.42691	652.74036	1309.69519	281.16544	433.01074	1155.70642	-178.41884	443.29947	1076.42273	-193.85797	367.62064	1041.39856	-135.61343	445.72211	930.94177	-200.15820	529.58435	873.33514	-132.76697	489.89825	840.18347	-186.30135	580.03748	807.15607	-140.24518
3087	12.34400	362.67126	1414.14722	79.01057	407.51639	1357.10095	249.58530	431.82437	1366.45288	-112.18501	514.60522	1308.67993	70.49733	477.09897	1163.28101	297.29645	506.97403	1122.52234	302.71393	517.50781	1061.24023	208.15898	603.93646	1153.04041	249.86916	598.08081	1263.00269	258.70032	626.07587	1241.66370	191.49962	652.65918	1309.75952	281.22055	432.97983	1155.70544	-178.42230	443.25592	1076.44275	-193.88815	367.58868	1041.40161	-135.62573	445.69849	930.95416	-200.18175	529.56293	873.34766	-132.79114	489.88293	840.20032	-186.33205	580.02472	807.16882	-140.28227
3088	12.34800	362.65997	1414.14319	79.02638	407.47528	1357.09668	249.61722	431.80167	1366.44812	-112.16393	514.57001	1308.67468	70.51236	477.08374	1163.28528	297.33844	506.93311	1122.51587	302.77087	517.50635	1061.25623	208.18370	603.90308	1153.08228	249.93700	598.01239	1263.03882	258.76950	626.02106	1241.71143	191.56671	652.58765	1309.83057	281.28134	432.94388	1155.70691	-178.42496	443.21994	1076.45178	-193.90324	367.54977	1041.40320	-135.63844	445.67651	930.96423	-200.19743	529.54230	873.36139	-132.82176	489.86621	840.21735	-186.37213	580.01581	807.18451	-140.32561
3089	12.35200	362.64099	1414.14343	79.04187	407.43085	1357.09180	249.64661	431.77972	1366.44434	-112.14139	514.53546	1308.66724	70.54136	477.07135	1163.28149	297.37854	506.88452	1122.51575	302.82886	517.50238	1061.24744	208.24950	603.87189	1153.12366	250.01251	597.94116	1263.07532	258.84253	625.97345	1241.75671	191.63750	652.51660	1309.89978	281.34323	432.91302	1155.70544	-178.42599	443.18137	1076.46082	-193.91832	367.53049	1041.39441	-135.64809	445.64737	930.97473	-200.22319	529.52386	873.37122	-132.85141	489.84399	840.23364	-186.42104	580.00232	807.19885	-140.37126
3090	12.35600	362.62323	1414.13623	79.06898	407.37564	1357.08618	249.67569	431.75821	1366.43811	-112.11501	514.50110	1308.65332	70.58047	477.04587	1163.28149	297.41846	506.83438	1122.51587	302.89017	517.52460	1061.25415	208.30768	603.84131	1153.16162	250.09024	597.86499	1263.11206	258.91757	625.93304	1241.79858	191.72966	652.43970	1309.97351	281.40314	432.88290	1155.71191	-178.42755	443.14676	1076.47009	-193.92970	367.50677	1041.39490	-135.64928	445.61636	930.98334	-200.24997	529.50690	873.37683	-132.88438	489.83002	840.24738	-186.45740	579.98901	807.21423	-140.41179
3091	12.36000	362.60352	1414.12720	79.09204	407.31842	1357.07336	249.70039	431.73642	1366.43396	-112.09377	514.47083	1308.64478	70.62048	477.01843	1163.28455	297.46222	506.78915	1122.51831	302.95093	517.52576	1061.25745	208.37509	603.80176	1153.19727	250.16069	597.78735	1263.15100	258.99548	625.88562	1241.83960	191.82748	652.36853	1310.05627	281.48431	432.84842	1155.71643	-178.42262	443.11017	1076.47742	-193.93681	367.47864	1041.39111	-135.66309	445.58661	930.98969	-200.26923	529.48340	873.37842	-132.92291	489.80545	840.25531	-186.49298	579.97528	807.22485	-140.45937
3092	12.36400	362.58087	1414.11792	79.11005	407.25452	1357.06787	249.73013	431.71149	1366.43347	-112.07024	514.44214	1308.64209	70.67554	476.98337	1163.28455	297.50479	506.74600	1122.52258	303.00558	517.52350	1061.25781	208.44495	603.75604	1153.23486	250.24265	597.71185	1263.19104	259.07718	625.82922	1241.88293	191.91714	652.29810	1310.13989	281.56406	432.81616	1155.72217	-178.42043	443.07416	1076.48718	-193.93765	367.44489	1041.38818	-135.66675	445.55740	930.99164	-200.28227	529.45929	873.37915	-132.96066	489.78134	840.26477	-186.52744	579.95227	807.24011	-140.50781
